<svg width="58" height="51" viewBox="0 0 58 51" fill="none" xmlns="http://www.w3.org/2000/svg">
<path fill-rule="evenodd" clip-rule="evenodd" d="M13.4159 49.4936C13.9364 50.3942 14.8981 50.9486 15.9391 50.9486H41.9896C43.0306 50.9486 43.9922 50.3942 44.5127 49.4936L57.54 26.9304C58.0605 26.0298 58.0605 24.9187 57.54 24.0181L44.5127 1.45729C43.9923 0.55439 43.0306 0 41.9896 0H15.9391C14.8981 0 13.9364 0.554407 13.4159 1.45729L0.388651 24.0181C-0.12955 24.9188 -0.12955 26.0299 0.388651 26.9304L13.4159 49.4936ZM22.6506 32.8793L16.2649 43.9404L6.79686 27.5433H19.5687L22.6506 32.8793ZM25.7077 34.6443L19.3221 45.7055H38.2715L31.8859 34.6443H25.7077ZM35.1097 33.1712L41.4954 44.2323L51.1308 27.5433H38.359L35.1097 33.1712ZM38.71 24.013H51.4818L41.6632 7.00767L35.2776 18.0688L38.71 24.013ZM34.2589 16.3031H32.22L38.6056 5.24197H18.9865L25.3721 16.3031H23.6682L22.4824 18.3578L16.0968 7.29669L6.44563 24.0124H19.2175L18.3734 25.4742L23.6682 16.3031H34.2589ZM31.2311 29.4005H26.6963L24.4288 25.4744L26.6963 21.5461H31.2311L33.4985 25.4744L31.2311 29.4005Z" fill="#EB6A00"/>
</svg>
